%TF.GenerationSoftware,KiCad,Pcbnew,(5.99.0-11164-g062c4fda62)*%
%TF.CreationDate,2021-09-01T15:58:56+05:30*%
%TF.ProjectId,rpi-cm4-base-carrier,7270692d-636d-4342-9d62-6173652d6361,v01*%
%TF.SameCoordinates,Original*%
%TF.FileFunction,Soldermask,Bot*%
%TF.FilePolarity,Negative*%
%FSLAX46Y46*%
G04 Gerber Fmt 4.6, Leading zero omitted, Abs format (unit mm)*
G04 Created by KiCad (PCBNEW (5.99.0-11164-g062c4fda62)) date 2021-09-01 15:58:56*
%MOMM*%
%LPD*%
G01*
G04 APERTURE LIST*
G04 Aperture macros list*
%AMRoundRect*
0 Rectangle with rounded corners*
0 $1 Rounding radius*
0 $2 $3 $4 $5 $6 $7 $8 $9 X,Y pos of 4 corners*
0 Add a 4 corners polygon primitive as box body*
4,1,4,$2,$3,$4,$5,$6,$7,$8,$9,$2,$3,0*
0 Add four circle primitives for the rounded corners*
1,1,$1+$1,$2,$3*
1,1,$1+$1,$4,$5*
1,1,$1+$1,$6,$7*
1,1,$1+$1,$8,$9*
0 Add four rect primitives between the rounded corners*
20,1,$1+$1,$2,$3,$4,$5,0*
20,1,$1+$1,$4,$5,$6,$7,0*
20,1,$1+$1,$6,$7,$8,$9,0*
20,1,$1+$1,$8,$9,$2,$3,0*%
G04 Aperture macros list end*
%ADD10R,1.408000X1.408000*%
%ADD11C,1.408000*%
%ADD12C,1.509000*%
%ADD13C,1.650000*%
%ADD14C,2.565000*%
%ADD15C,3.330000*%
%ADD16O,1.400000X1.000000*%
%ADD17O,1.700000X1.300000*%
%ADD18C,1.100000*%
%ADD19R,2.030000X1.730000*%
%ADD20O,2.030000X1.730000*%
%ADD21C,2.350000*%
%ADD22R,1.300000X1.300000*%
%ADD23C,1.300000*%
%ADD24R,3.500000X3.500000*%
%ADD25RoundRect,0.750000X1.000000X-0.750000X1.000000X0.750000X-1.000000X0.750000X-1.000000X-0.750000X0*%
%ADD26RoundRect,0.875000X0.875000X-0.875000X0.875000X0.875000X-0.875000X0.875000X-0.875000X-0.875000X0*%
%ADD27C,6.100000*%
G04 APERTURE END LIST*
D10*
%TO.C,J4*%
X172697500Y-57890000D03*
D11*
X170197500Y-57890000D03*
X167697500Y-57890000D03*
X165197500Y-57890000D03*
%TD*%
D12*
%TO.C,J7*%
X161144500Y-108550000D03*
X162414500Y-106010000D03*
X163684500Y-108550000D03*
X164954500Y-106010000D03*
X166224500Y-108550000D03*
X167494500Y-106010000D03*
X168764500Y-108550000D03*
X170034500Y-106010000D03*
D13*
X158964500Y-119800000D03*
X161504500Y-119800000D03*
X169674500Y-119800000D03*
X172214500Y-119800000D03*
D14*
X173334500Y-111850000D03*
X157844500Y-111850000D03*
D15*
X171304500Y-114900000D03*
X159874500Y-114900000D03*
%TD*%
D16*
%TO.C,J2*%
X116789556Y-86999089D03*
D17*
X113759556Y-87299089D03*
D16*
X116789556Y-82149089D03*
D17*
X113759556Y-81849089D03*
%TD*%
D18*
%TO.C,J1*%
X167360000Y-74460000D03*
D19*
X169520000Y-79540000D03*
D20*
X169520000Y-77000000D03*
X169520000Y-74460000D03*
X169520000Y-71920000D03*
%TD*%
D21*
%TO.C,J6*%
X115190000Y-51580000D03*
D22*
X113940000Y-72380000D03*
D23*
X111940000Y-71380000D03*
X113940000Y-70380000D03*
X111940000Y-69380000D03*
X113940000Y-68380000D03*
X111940000Y-67380000D03*
X113940000Y-66380000D03*
X111940000Y-65380000D03*
X113940000Y-64380000D03*
X111940000Y-63380000D03*
X113940000Y-62380000D03*
X111940000Y-59380000D03*
X113940000Y-58380000D03*
X111940000Y-57380000D03*
X113940000Y-56380000D03*
X111940000Y-55380000D03*
X113940000Y-54380000D03*
X111940000Y-53380000D03*
X116440000Y-72380000D03*
X118440000Y-71380000D03*
X116440000Y-70380000D03*
X118440000Y-69380000D03*
X116440000Y-68380000D03*
X118440000Y-67380000D03*
X116440000Y-66380000D03*
X118440000Y-65380000D03*
X116440000Y-64380000D03*
X118440000Y-63380000D03*
X116440000Y-62380000D03*
X118440000Y-59380000D03*
X116440000Y-58380000D03*
X118440000Y-57380000D03*
X116440000Y-56380000D03*
X118440000Y-55380000D03*
X116440000Y-54380000D03*
X118440000Y-53380000D03*
%TD*%
D24*
%TO.C,J3*%
X143592500Y-113170000D03*
D25*
X143592500Y-119170000D03*
D26*
X148292500Y-116170000D03*
%TD*%
D27*
%TO.C,Module1*%
X125650000Y-97770000D03*
X158650000Y-49770000D03*
X125650000Y-49770000D03*
X158650000Y-97770000D03*
%TD*%
M02*
