%TF.GenerationSoftware,KiCad,Pcbnew,(5.99.0-11164-g062c4fda62)*%
%TF.CreationDate,2021-09-01T15:58:56+05:30*%
%TF.ProjectId,rpi-cm4-base-carrier,7270692d-636d-4342-9d62-6173652d6361,v01*%
%TF.SameCoordinates,Original*%
%TF.FileFunction,Legend,Bot*%
%TF.FilePolarity,Positive*%
%FSLAX46Y46*%
G04 Gerber Fmt 4.6, Leading zero omitted, Abs format (unit mm)*
G04 Created by KiCad (PCBNEW (5.99.0-11164-g062c4fda62)) date 2021-09-01 15:58:56*
%MOMM*%
%LPD*%
G01*
G04 APERTURE LIST*
%ADD10C,0.300000*%
G04 APERTURE END LIST*
D10*
X180995714Y-91601071D02*
X180995714Y-90101071D01*
X180424285Y-90101071D01*
X180281428Y-90172500D01*
X180210000Y-90243928D01*
X180138571Y-90386785D01*
X180138571Y-90601071D01*
X180210000Y-90743928D01*
X180281428Y-90815357D01*
X180424285Y-90886785D01*
X180995714Y-90886785D01*
X179495714Y-90815357D02*
X178995714Y-90815357D01*
X178781428Y-91601071D02*
X179495714Y-91601071D01*
X179495714Y-90101071D01*
X178781428Y-90101071D01*
X177281428Y-91601071D02*
X177781428Y-90886785D01*
X178138571Y-91601071D02*
X178138571Y-90101071D01*
X177567142Y-90101071D01*
X177424285Y-90172500D01*
X177352857Y-90243928D01*
X177281428Y-90386785D01*
X177281428Y-90601071D01*
X177352857Y-90743928D01*
X177424285Y-90815357D01*
X177567142Y-90886785D01*
X178138571Y-90886785D01*
X176638571Y-91601071D02*
X176638571Y-90101071D01*
X176638571Y-90815357D02*
X175781428Y-90815357D01*
X175781428Y-91601071D02*
X175781428Y-90101071D01*
X175138571Y-91172500D02*
X174424285Y-91172500D01*
X175281428Y-91601071D02*
X174781428Y-90101071D01*
X174281428Y-91601071D01*
X173781428Y-91601071D02*
X173781428Y-90101071D01*
X173210000Y-90101071D01*
X173067142Y-90172500D01*
X172995714Y-90243928D01*
X172924285Y-90386785D01*
X172924285Y-90601071D01*
X172995714Y-90743928D01*
X173067142Y-90815357D01*
X173210000Y-90886785D01*
X173781428Y-90886785D01*
X172352857Y-91529642D02*
X172138571Y-91601071D01*
X171781428Y-91601071D01*
X171638571Y-91529642D01*
X171567142Y-91458214D01*
X171495714Y-91315357D01*
X171495714Y-91172500D01*
X171567142Y-91029642D01*
X171638571Y-90958214D01*
X171781428Y-90886785D01*
X172067142Y-90815357D01*
X172210000Y-90743928D01*
X172281428Y-90672500D01*
X172352857Y-90529642D01*
X172352857Y-90386785D01*
X172281428Y-90243928D01*
X172210000Y-90172500D01*
X172067142Y-90101071D01*
X171710000Y-90101071D01*
X171495714Y-90172500D01*
X169424285Y-90886785D02*
X169424285Y-91601071D01*
X169924285Y-90101071D02*
X169424285Y-90886785D01*
X168924285Y-90101071D01*
X168138571Y-90101071D02*
X167852857Y-90101071D01*
X167710000Y-90172500D01*
X167567142Y-90315357D01*
X167495714Y-90601071D01*
X167495714Y-91101071D01*
X167567142Y-91386785D01*
X167710000Y-91529642D01*
X167852857Y-91601071D01*
X168138571Y-91601071D01*
X168281428Y-91529642D01*
X168424285Y-91386785D01*
X168495714Y-91101071D01*
X168495714Y-90601071D01*
X168424285Y-90315357D01*
X168281428Y-90172500D01*
X168138571Y-90101071D01*
X166852857Y-90101071D02*
X166852857Y-91315357D01*
X166781428Y-91458214D01*
X166710000Y-91529642D01*
X166567142Y-91601071D01*
X166281428Y-91601071D01*
X166138571Y-91529642D01*
X166067142Y-91458214D01*
X165995714Y-91315357D01*
X165995714Y-90101071D01*
X164424285Y-91601071D02*
X164924285Y-90886785D01*
X165281428Y-91601071D02*
X165281428Y-90101071D01*
X164710000Y-90101071D01*
X164567142Y-90172500D01*
X164495714Y-90243928D01*
X164424285Y-90386785D01*
X164424285Y-90601071D01*
X164495714Y-90743928D01*
X164567142Y-90815357D01*
X164710000Y-90886785D01*
X165281428Y-90886785D01*
X162638571Y-91601071D02*
X162638571Y-90101071D01*
X162138571Y-91172500D01*
X161638571Y-90101071D01*
X161638571Y-91601071D01*
X160924285Y-91601071D02*
X160924285Y-90101071D01*
X160281428Y-91529642D02*
X160067142Y-91601071D01*
X159710000Y-91601071D01*
X159567142Y-91529642D01*
X159495714Y-91458214D01*
X159424285Y-91315357D01*
X159424285Y-91172500D01*
X159495714Y-91029642D01*
X159567142Y-90958214D01*
X159710000Y-90886785D01*
X159995714Y-90815357D01*
X160138571Y-90743928D01*
X160210000Y-90672500D01*
X160281428Y-90529642D01*
X160281428Y-90386785D01*
X160210000Y-90243928D01*
X160138571Y-90172500D01*
X159995714Y-90101071D01*
X159638571Y-90101071D01*
X159424285Y-90172500D01*
X158995714Y-90101071D02*
X158138571Y-90101071D01*
X158567142Y-91601071D02*
X158567142Y-90101071D01*
X157710000Y-91172500D02*
X156995714Y-91172500D01*
X157852857Y-91601071D02*
X157352857Y-90101071D01*
X156852857Y-91601071D01*
X156352857Y-91601071D02*
X156352857Y-90101071D01*
X155495714Y-91601071D02*
X156138571Y-90743928D01*
X155495714Y-90101071D02*
X156352857Y-90958214D01*
X154852857Y-90815357D02*
X154352857Y-90815357D01*
X154138571Y-91601071D02*
X154852857Y-91601071D01*
X154852857Y-90101071D01*
X154138571Y-90101071D01*
X153567142Y-91529642D02*
X153352857Y-91601071D01*
X152995714Y-91601071D01*
X152852857Y-91529642D01*
X152781428Y-91458214D01*
X152710000Y-91315357D01*
X152710000Y-91172500D01*
X152781428Y-91029642D01*
X152852857Y-90958214D01*
X152995714Y-90886785D01*
X153281428Y-90815357D01*
X153424285Y-90743928D01*
X153495714Y-90672500D01*
X153567142Y-90529642D01*
X153567142Y-90386785D01*
X153495714Y-90243928D01*
X153424285Y-90172500D01*
X153281428Y-90101071D01*
X152924285Y-90101071D01*
X152710000Y-90172500D01*
X150995714Y-91172500D02*
X150281428Y-91172500D01*
X151138571Y-91601071D02*
X150638571Y-90101071D01*
X150138571Y-91601071D01*
X148781428Y-91601071D02*
X149281428Y-90886785D01*
X149638571Y-91601071D02*
X149638571Y-90101071D01*
X149067142Y-90101071D01*
X148924285Y-90172500D01*
X148852857Y-90243928D01*
X148781428Y-90386785D01*
X148781428Y-90601071D01*
X148852857Y-90743928D01*
X148924285Y-90815357D01*
X149067142Y-90886785D01*
X149638571Y-90886785D01*
X148138571Y-90815357D02*
X147638571Y-90815357D01*
X147424285Y-91601071D02*
X148138571Y-91601071D01*
X148138571Y-90101071D01*
X147424285Y-90101071D01*
X145781428Y-90101071D02*
X145424285Y-91601071D01*
X145138571Y-90529642D01*
X144852857Y-91601071D01*
X144495714Y-90101071D01*
X143924285Y-91601071D02*
X143924285Y-90101071D01*
X143924285Y-90815357D02*
X143067142Y-90815357D01*
X143067142Y-91601071D02*
X143067142Y-90101071D01*
X142424285Y-91172500D02*
X141710000Y-91172500D01*
X142567142Y-91601071D02*
X142067142Y-90101071D01*
X141567142Y-91601071D01*
X141281428Y-90101071D02*
X140424285Y-90101071D01*
X140852857Y-91601071D02*
X140852857Y-90101071D01*
X138995714Y-90101071D02*
X138138571Y-90101071D01*
X138567142Y-91601071D02*
X138567142Y-90101071D01*
X137638571Y-91601071D02*
X137638571Y-90101071D01*
X137638571Y-90815357D02*
X136781428Y-90815357D01*
X136781428Y-91601071D02*
X136781428Y-90101071D01*
X136067142Y-90815357D02*
X135567142Y-90815357D01*
X135352857Y-91601071D02*
X136067142Y-91601071D01*
X136067142Y-90101071D01*
X135352857Y-90101071D01*
X133710000Y-90101071D02*
X133352857Y-91601071D01*
X133067142Y-90529642D01*
X132781428Y-91601071D01*
X132424285Y-90101071D01*
X131567142Y-90101071D02*
X131281428Y-90101071D01*
X131138571Y-90172500D01*
X130995714Y-90315357D01*
X130924285Y-90601071D01*
X130924285Y-91101071D01*
X130995714Y-91386785D01*
X131138571Y-91529642D01*
X131281428Y-91601071D01*
X131567142Y-91601071D01*
X131710000Y-91529642D01*
X131852857Y-91386785D01*
X131924285Y-91101071D01*
X131924285Y-90601071D01*
X131852857Y-90315357D01*
X131710000Y-90172500D01*
X131567142Y-90101071D01*
X129424285Y-91601071D02*
X129924285Y-90886785D01*
X130281428Y-91601071D02*
X130281428Y-90101071D01*
X129710000Y-90101071D01*
X129567142Y-90172500D01*
X129495714Y-90243928D01*
X129424285Y-90386785D01*
X129424285Y-90601071D01*
X129495714Y-90743928D01*
X129567142Y-90815357D01*
X129710000Y-90886785D01*
X130281428Y-90886785D01*
X128067142Y-91601071D02*
X128781428Y-91601071D01*
X128781428Y-90101071D01*
X127567142Y-91601071D02*
X127567142Y-90101071D01*
X127210000Y-90101071D01*
X126995714Y-90172500D01*
X126852857Y-90315357D01*
X126781428Y-90458214D01*
X126710000Y-90743928D01*
X126710000Y-90958214D01*
X126781428Y-91243928D01*
X126852857Y-91386785D01*
X126995714Y-91529642D01*
X127210000Y-91601071D01*
X127567142Y-91601071D01*
X124924285Y-91601071D02*
X124924285Y-90101071D01*
X124067142Y-91601071D01*
X124067142Y-90101071D01*
X123352857Y-90815357D02*
X122852857Y-90815357D01*
X122638571Y-91601071D02*
X123352857Y-91601071D01*
X123352857Y-90101071D01*
X122638571Y-90101071D01*
X121995714Y-90815357D02*
X121495714Y-90815357D01*
X121281428Y-91601071D02*
X121995714Y-91601071D01*
X121995714Y-90101071D01*
X121281428Y-90101071D01*
X120638571Y-91601071D02*
X120638571Y-90101071D01*
X120281428Y-90101071D01*
X120067142Y-90172500D01*
X119924285Y-90315357D01*
X119852857Y-90458214D01*
X119781428Y-90743928D01*
X119781428Y-90958214D01*
X119852857Y-91243928D01*
X119924285Y-91386785D01*
X120067142Y-91529642D01*
X120281428Y-91601071D01*
X120638571Y-91601071D01*
X119210000Y-91529642D02*
X118995714Y-91601071D01*
X118638571Y-91601071D01*
X118495714Y-91529642D01*
X118424285Y-91458214D01*
X118352857Y-91315357D01*
X118352857Y-91172500D01*
X118424285Y-91029642D01*
X118495714Y-90958214D01*
X118638571Y-90886785D01*
X118924285Y-90815357D01*
X119067142Y-90743928D01*
X119138571Y-90672500D01*
X119210000Y-90529642D01*
X119210000Y-90386785D01*
X119138571Y-90243928D01*
X119067142Y-90172500D01*
X118924285Y-90101071D01*
X118567142Y-90101071D01*
X118352857Y-90172500D01*
X160460000Y-92516071D02*
X160102857Y-94016071D01*
X159817142Y-92944642D01*
X159531428Y-94016071D01*
X159174285Y-92516071D01*
X158317142Y-92516071D02*
X158031428Y-92516071D01*
X157888571Y-92587500D01*
X157745714Y-92730357D01*
X157674285Y-93016071D01*
X157674285Y-93516071D01*
X157745714Y-93801785D01*
X157888571Y-93944642D01*
X158031428Y-94016071D01*
X158317142Y-94016071D01*
X158460000Y-93944642D01*
X158602857Y-93801785D01*
X158674285Y-93516071D01*
X158674285Y-93016071D01*
X158602857Y-92730357D01*
X158460000Y-92587500D01*
X158317142Y-92516071D01*
X156174285Y-94016071D02*
X156674285Y-93301785D01*
X157031428Y-94016071D02*
X157031428Y-92516071D01*
X156460000Y-92516071D01*
X156317142Y-92587500D01*
X156245714Y-92658928D01*
X156174285Y-92801785D01*
X156174285Y-93016071D01*
X156245714Y-93158928D01*
X156317142Y-93230357D01*
X156460000Y-93301785D01*
X157031428Y-93301785D01*
X155531428Y-94016071D02*
X155531428Y-92516071D01*
X155174285Y-92516071D01*
X154960000Y-92587500D01*
X154817142Y-92730357D01*
X154745714Y-92873214D01*
X154674285Y-93158928D01*
X154674285Y-93373214D01*
X154745714Y-93658928D01*
X154817142Y-93801785D01*
X154960000Y-93944642D01*
X155174285Y-94016071D01*
X155531428Y-94016071D01*
X154102857Y-93944642D02*
X153888571Y-94016071D01*
X153531428Y-94016071D01*
X153388571Y-93944642D01*
X153317142Y-93873214D01*
X153245714Y-93730357D01*
X153245714Y-93587500D01*
X153317142Y-93444642D01*
X153388571Y-93373214D01*
X153531428Y-93301785D01*
X153817142Y-93230357D01*
X153960000Y-93158928D01*
X154031428Y-93087500D01*
X154102857Y-92944642D01*
X154102857Y-92801785D01*
X154031428Y-92658928D01*
X153960000Y-92587500D01*
X153817142Y-92516071D01*
X153460000Y-92516071D01*
X153245714Y-92587500D01*
X151174285Y-92516071D02*
X150888571Y-92516071D01*
X150745714Y-92587500D01*
X150602857Y-92730357D01*
X150531428Y-93016071D01*
X150531428Y-93516071D01*
X150602857Y-93801785D01*
X150745714Y-93944642D01*
X150888571Y-94016071D01*
X151174285Y-94016071D01*
X151317142Y-93944642D01*
X151460000Y-93801785D01*
X151531428Y-93516071D01*
X151531428Y-93016071D01*
X151460000Y-92730357D01*
X151317142Y-92587500D01*
X151174285Y-92516071D01*
X149388571Y-93230357D02*
X149888571Y-93230357D01*
X149888571Y-94016071D02*
X149888571Y-92516071D01*
X149174285Y-92516071D01*
X147674285Y-92516071D02*
X147174285Y-94016071D01*
X146674285Y-92516071D01*
X146245714Y-93587500D02*
X145531428Y-93587500D01*
X146388571Y-94016071D02*
X145888571Y-92516071D01*
X145388571Y-94016071D01*
X144888571Y-94016071D02*
X144888571Y-92516071D01*
X144031428Y-94016071D01*
X144031428Y-92516071D01*
X143531428Y-92516071D02*
X142674285Y-92516071D01*
X143102857Y-94016071D02*
X143102857Y-92516071D01*
X142245714Y-93587500D02*
X141531428Y-93587500D01*
X142388571Y-94016071D02*
X141888571Y-92516071D01*
X141388571Y-94016071D01*
X140174285Y-94016071D02*
X140888571Y-94016071D01*
X140888571Y-92516071D01*
X139745714Y-93587500D02*
X139031428Y-93587500D01*
X139888571Y-94016071D02*
X139388571Y-92516071D01*
X138888571Y-94016071D01*
M02*
