M48
; DRILL file {KiCad (5.99.0-11164-g062c4fda62)} date Wed Sep  1 15:59:01 2021
; FORMAT={-:-/ absolute / inch / decimal}
; #@! TF.CreationDate,2021-09-01T15:59:01+05:30
; #@! TF.GenerationSoftware,Kicad,Pcbnew,(5.99.0-11164-g062c4fda62)
; #@! TF.FileFunction,Plated,1,2,PTH
FMAT,2
INCH
; #@! TA.AperFunction,Plated,PTH,ComponentDrill
T1C0.0079
; #@! TA.AperFunction,Plated,PTH,ViaDrill
T2C0.0100
; #@! TA.AperFunction,Plated,PTH,ComponentDrill
T3C0.0256
; #@! TA.AperFunction,Plated,PTH,ComponentDrill
T4C0.0276
; #@! TA.AperFunction,Plated,PTH,ComponentDrill
T5C0.0354
; #@! TA.AperFunction,Plated,PTH,ComponentDrill
T6C0.0382
; #@! TA.AperFunction,Plated,PTH,ComponentDrill
T7C0.0394
; #@! TA.AperFunction,Plated,PTH,ComponentDrill
T8C0.0402
; #@! TA.AperFunction,Plated,PTH,ComponentDrill
T9C0.0433
; #@! TA.AperFunction,Plated,PTH,ComponentDrill
T10C0.0673
; #@! TA.AperFunction,Plated,PTH,ComponentDrill
T11C0.0925
%
G90
G05
T1
X6.9795Y-3.6707
X6.9795Y-3.7219
X6.9795Y-3.773
X6.9795Y-3.8242
X6.987Y-3.3201
X6.987Y-3.3713
X6.987Y-3.4224
X6.987Y-3.4736
X7.0307Y-3.6707
X7.0307Y-3.7219
X7.0307Y-3.773
X7.0307Y-3.8242
X7.0382Y-3.3201
X7.0382Y-3.3713
X7.0382Y-3.4224
X7.0382Y-3.4736
T2
X4.4272Y-3.1256
X4.4303Y-2.9917
X4.4406Y-1.9504
X4.4732Y-4.4614
X4.5047Y-4.1429
X4.5429Y-3.7642
X4.6654Y-3.9575
X4.6795Y-3.2272
X4.6803Y-1.9528
X4.7169Y-3.3183
X4.7213Y-4.361
X4.7268Y-4.1339
X4.7398Y-3.5945
X4.7531Y-2.5098
X4.7921Y-3.1031
X4.8713Y-2.2181
X4.9064Y-2.3258
X4.9126Y-3.0067
X4.9126Y-3.1535
X4.913Y-2.5181
X4.913Y-2.6713
X4.915Y-2.8614
X4.922Y-4.4913
X4.9298Y-2.3025
X4.9346Y-3.2
X4.9476Y-4.8287
X4.9654Y-4.4913
X5.0087Y-4.4882
X5.0531Y-4.4886
X5.0618Y-3.524
X5.065Y-2.4343
X5.0705Y-2.6583
X5.074Y-2.8929
X5.0803Y-3.0276
X5.139Y-4.4913
X5.1823Y-4.4913
X5.2067Y-4.8244
X5.2256Y-4.4913
X5.4106Y-4.676
X5.4205Y-1.8516
X5.4205Y-1.9382
X5.4205Y-2.0441
X5.4945Y-2.1146
X5.4945Y-4.0957
X5.6803Y-2.1146
X5.7047Y-4.1492
X5.715Y-3.8724
X5.8665Y-2.1146
X5.8941Y-4.7343
X5.9437Y-1.8484
X5.9437Y-1.9478
X5.9437Y-2.0472
X5.9669Y-4.5697
X5.9953Y-4.8543
X6.052Y-2.2154
X6.0776Y-2.5173
X6.0909Y-4.7386
X6.126Y-3.0811
X6.1358Y-2.9547
X6.1362Y-2.7539
X6.1366Y-2.8772
X6.1409Y-3.0508
X6.1579Y-4.2933
X6.1606Y-4.5386
X6.263Y-2.937
X6.2693Y-2.672
X6.2693Y-2.7083
X6.2835Y-3.0516
X6.289Y-3.0906
X6.2969Y-3.6441
X6.2992Y-3.3213
X6.3626Y-2.6563
X6.3646Y-2.7343
X6.4209Y-1.9654
X6.4232Y-3.0224
X6.4538Y-3.8772
X6.4563Y-3.1106
X6.4862Y-2.7862
X6.5335Y-2.4083
X6.5346Y-3.2791
X6.5543Y-3.3972
X6.5614Y-3.747
X6.5819Y-3.9508
X6.6134Y-2.6756
X6.7012Y-3.5709
X6.7016Y-3.2268
X6.7165Y-2.4087
X6.778Y-2.6713
X6.7866Y-3.9563
X6.7929Y-3.5701
X6.8787Y-3.1331
X6.885Y-2.9854
X6.8862Y-2.3409
X6.9354Y-3.274
X6.9413Y-3.9378
X6.9429Y-4.2961
X6.9429Y-4.5598
X6.9461Y-4.4476
X6.9799Y-2.3445
X7.0114Y-3.2744
X7.0114Y-3.5528
X7.074Y-2.2717
X7.1031Y-3.9894
X7.1248Y-4.6606
X7.1756Y-3.6193
X7.1906Y-3.2118
X7.2173Y-3.3961
X7.2374Y-3.6094
X7.2378Y-2.2134
X7.2421Y-2.0701
T4
X4.4071Y-2.1016
X4.4071Y-2.1803
X4.4071Y-2.2591
X4.4071Y-2.3378
X4.4071Y-2.4953
X4.4071Y-2.574
X4.4071Y-2.6528
X4.4071Y-2.7315
X4.4071Y-2.8102
X4.4858Y-2.1409
X4.4858Y-2.2197
X4.4858Y-2.2984
X4.4858Y-2.4559
X4.4858Y-2.5346
X4.4858Y-2.6134
X4.4858Y-2.6921
X4.4858Y-2.7709
X4.4858Y-2.8496
X4.5843Y-2.1409
X4.5843Y-2.2197
X4.5843Y-2.2984
X4.5843Y-2.4559
X4.5843Y-2.5346
X4.5843Y-2.6134
X4.5843Y-2.6921
X4.5843Y-2.7709
X4.5843Y-2.8496
X4.663Y-2.1016
X4.663Y-2.1803
X4.663Y-2.2591
X4.663Y-2.3378
X4.663Y-2.4953
X4.663Y-2.574
X4.663Y-2.6528
X4.663Y-2.7315
X4.663Y-2.8102
T5
X6.5038Y-2.2791
X6.6023Y-2.2791
X6.7007Y-2.2791
X6.7991Y-2.2791
T6
X6.3443Y-4.2736
X6.3943Y-4.1736
X6.4443Y-4.2736
X6.4943Y-4.1736
X6.5443Y-4.2736
X6.5943Y-4.1736
X6.6443Y-4.2736
X6.6943Y-4.1736
T8
X6.674Y-2.8315
X6.674Y-2.9315
X6.674Y-3.0315
X6.674Y-3.1315
T9
X6.2584Y-4.7165
X6.3584Y-4.7165
X6.6801Y-4.7165
X6.7801Y-4.7165
T10
X6.2144Y-4.4035
X6.8242Y-4.4035
T11
X4.535Y-2.0307
T3
G00X4.5901Y-3.2342
M15
G01X4.6059Y-3.2342
M16
G05
G00X4.5901Y-3.4252
M15
G01X4.6059Y-3.4252
M16
G05
T4
G00X4.4689Y-3.2224
M15
G01X4.4886Y-3.2224
M16
G05
G00X4.4689Y-3.437
M15
G01X4.4886Y-3.437
M16
G05
T7
G00X5.6139Y-4.4555
M15
G01X5.6926Y-4.4555
M16
G05
G00X5.6139Y-4.6917
M15
G01X5.6926Y-4.6917
M16
G05
G00X5.8383Y-4.613
M15
G01X5.8383Y-4.5343
M16
G05
T0
M30
