%TF.GenerationSoftware,KiCad,Pcbnew,(5.99.0-11164-g062c4fda62)*%
%TF.CreationDate,2021-09-01T15:58:56+05:30*%
%TF.ProjectId,rpi-cm4-base-carrier,7270692d-636d-4342-9d62-6173652d6361,v01*%
%TF.SameCoordinates,Original*%
%TF.FileFunction,Paste,Top*%
%TF.FilePolarity,Positive*%
%FSLAX46Y46*%
G04 Gerber Fmt 4.6, Leading zero omitted, Abs format (unit mm)*
G04 Created by KiCad (PCBNEW (5.99.0-11164-g062c4fda62)) date 2021-09-01 15:58:56*
%MOMM*%
%LPD*%
G01*
G04 APERTURE LIST*
G04 Aperture macros list*
%AMRoundRect*
0 Rectangle with rounded corners*
0 $1 Rounding radius*
0 $2 $3 $4 $5 $6 $7 $8 $9 X,Y pos of 4 corners*
0 Add a 4 corners polygon primitive as box body*
4,1,4,$2,$3,$4,$5,$6,$7,$8,$9,$2,$3,0*
0 Add four circle primitives for the rounded corners*
1,1,$1+$1,$2,$3*
1,1,$1+$1,$4,$5*
1,1,$1+$1,$6,$7*
1,1,$1+$1,$8,$9*
0 Add four rect primitives between the rounded corners*
20,1,$1+$1,$2,$3,$4,$5,0*
20,1,$1+$1,$4,$5,$6,$7,0*
20,1,$1+$1,$6,$7,$8,$9,0*
20,1,$1+$1,$8,$9,$2,$3,0*%
G04 Aperture macros list end*
%ADD10C,0.010000*%
%ADD11RoundRect,0.250000X-0.475000X0.250000X-0.475000X-0.250000X0.475000X-0.250000X0.475000X0.250000X0*%
%ADD12RoundRect,0.140000X-0.170000X0.140000X-0.170000X-0.140000X0.170000X-0.140000X0.170000X0.140000X0*%
%ADD13RoundRect,0.135000X0.135000X0.185000X-0.135000X0.185000X-0.135000X-0.185000X0.135000X-0.185000X0*%
%ADD14R,0.300000X0.300000*%
%ADD15R,0.420000X0.700000*%
%ADD16R,1.000000X0.600000*%
%ADD17RoundRect,0.140000X-0.140000X-0.170000X0.140000X-0.170000X0.140000X0.170000X-0.140000X0.170000X0*%
%ADD18RoundRect,0.140000X0.170000X-0.140000X0.170000X0.140000X-0.170000X0.140000X-0.170000X-0.140000X0*%
%ADD19R,2.350000X5.100000*%
%ADD20RoundRect,0.135000X-0.185000X0.135000X-0.185000X-0.135000X0.185000X-0.135000X0.185000X0.135000X0*%
%ADD21RoundRect,0.250000X-0.315000X-0.460000X0.315000X-0.460000X0.315000X0.460000X-0.315000X0.460000X0*%
%ADD22RoundRect,0.150000X-0.737500X-0.150000X0.737500X-0.150000X0.737500X0.150000X-0.737500X0.150000X0*%
%ADD23RoundRect,0.135000X-0.135000X-0.185000X0.135000X-0.185000X0.135000X0.185000X-0.135000X0.185000X0*%
%ADD24RoundRect,0.250000X0.787500X1.025000X-0.787500X1.025000X-0.787500X-1.025000X0.787500X-1.025000X0*%
%ADD25RoundRect,0.250000X-0.250000X-0.475000X0.250000X-0.475000X0.250000X0.475000X-0.250000X0.475000X0*%
%ADD26RoundRect,0.135000X0.185000X-0.135000X0.185000X0.135000X-0.185000X0.135000X-0.185000X-0.135000X0*%
%ADD27RoundRect,0.250000X0.475000X-0.250000X0.475000X0.250000X-0.475000X0.250000X-0.475000X-0.250000X0*%
%ADD28RoundRect,0.250000X0.250000X0.475000X-0.250000X0.475000X-0.250000X-0.475000X0.250000X-0.475000X0*%
%ADD29RoundRect,0.218750X-0.218750X-0.256250X0.218750X-0.256250X0.218750X0.256250X-0.218750X0.256250X0*%
%ADD30R,5.100000X2.350000*%
%ADD31R,1.750000X0.400000*%
%ADD32R,2.500000X1.425000*%
%ADD33R,0.700000X1.825000*%
%ADD34R,1.400000X2.000000*%
%ADD35R,2.000000X1.300000*%
%ADD36RoundRect,0.140000X0.140000X0.170000X-0.140000X0.170000X-0.140000X-0.170000X0.140000X-0.170000X0*%
%ADD37RoundRect,0.150000X-0.512500X-0.150000X0.512500X-0.150000X0.512500X0.150000X-0.512500X0.150000X0*%
%ADD38R,0.200000X0.565000*%
%ADD39R,0.700000X1.100000*%
%ADD40R,0.900000X0.930000*%
%ADD41R,1.050000X0.780000*%
%ADD42R,0.700000X3.330000*%
%ADD43R,1.140000X1.830000*%
%ADD44R,0.860000X2.800000*%
%ADD45RoundRect,0.250000X-0.787500X-1.025000X0.787500X-1.025000X0.787500X1.025000X-0.787500X1.025000X0*%
%ADD46R,0.800000X0.900000*%
%ADD47R,0.400000X0.650000*%
%ADD48R,0.700000X0.200000*%
G04 APERTURE END LIST*
D10*
%TO.C,U6*%
X163770000Y-100545000D02*
X163770000Y-101010000D01*
X163770000Y-101010000D02*
X163770069Y-101012617D01*
X163770069Y-101012617D02*
X163770274Y-101015226D01*
X163770274Y-101015226D02*
X163770616Y-101017822D01*
X163770616Y-101017822D02*
X163771093Y-101020396D01*
X163771093Y-101020396D02*
X163771704Y-101022941D01*
X163771704Y-101022941D02*
X163772447Y-101025451D01*
X163772447Y-101025451D02*
X163773321Y-101027918D01*
X163773321Y-101027918D02*
X163774323Y-101030337D01*
X163774323Y-101030337D02*
X163775450Y-101032700D01*
X163775450Y-101032700D02*
X163776699Y-101035000D01*
X163776699Y-101035000D02*
X163778066Y-101037232D01*
X163778066Y-101037232D02*
X163779549Y-101039389D01*
X163779549Y-101039389D02*
X163781143Y-101041466D01*
X163781143Y-101041466D02*
X163782843Y-101043457D01*
X163782843Y-101043457D02*
X163784645Y-101045355D01*
X163784645Y-101045355D02*
X163786543Y-101047157D01*
X163786543Y-101047157D02*
X163788534Y-101048857D01*
X163788534Y-101048857D02*
X163790611Y-101050451D01*
X163790611Y-101050451D02*
X163792768Y-101051934D01*
X163792768Y-101051934D02*
X163795000Y-101053301D01*
X163795000Y-101053301D02*
X163797300Y-101054550D01*
X163797300Y-101054550D02*
X163799663Y-101055677D01*
X163799663Y-101055677D02*
X163802082Y-101056679D01*
X163802082Y-101056679D02*
X163804549Y-101057553D01*
X163804549Y-101057553D02*
X163807059Y-101058296D01*
X163807059Y-101058296D02*
X163809604Y-101058907D01*
X163809604Y-101058907D02*
X163812178Y-101059384D01*
X163812178Y-101059384D02*
X163814774Y-101059726D01*
X163814774Y-101059726D02*
X163817383Y-101059931D01*
X163817383Y-101059931D02*
X163820000Y-101060000D01*
X163820000Y-101060000D02*
X164082500Y-101060000D01*
X164082500Y-101060000D02*
X164084986Y-101059935D01*
X164084986Y-101059935D02*
X164087465Y-101059740D01*
X164087465Y-101059740D02*
X164089931Y-101059415D01*
X164089931Y-101059415D02*
X164092376Y-101058962D01*
X164092376Y-101058962D02*
X164094794Y-101058381D01*
X164094794Y-101058381D02*
X164097178Y-101057675D01*
X164097178Y-101057675D02*
X164099522Y-101056845D01*
X164099522Y-101056845D02*
X164101820Y-101055893D01*
X164101820Y-101055893D02*
X164104065Y-101054823D01*
X164104065Y-101054823D02*
X164106250Y-101053636D01*
X164106250Y-101053636D02*
X164108370Y-101052337D01*
X164108370Y-101052337D02*
X164110420Y-101050928D01*
X164110420Y-101050928D02*
X164112393Y-101049414D01*
X164112393Y-101049414D02*
X164114284Y-101047799D01*
X164114284Y-101047799D02*
X164116088Y-101046088D01*
X164116088Y-101046088D02*
X164117799Y-101044284D01*
X164117799Y-101044284D02*
X164119414Y-101042393D01*
X164119414Y-101042393D02*
X164120928Y-101040420D01*
X164120928Y-101040420D02*
X164122337Y-101038370D01*
X164122337Y-101038370D02*
X164123636Y-101036250D01*
X164123636Y-101036250D02*
X164124823Y-101034065D01*
X164124823Y-101034065D02*
X164125893Y-101031820D01*
X164125893Y-101031820D02*
X164126845Y-101029522D01*
X164126845Y-101029522D02*
X164127675Y-101027178D01*
X164127675Y-101027178D02*
X164128381Y-101024794D01*
X164128381Y-101024794D02*
X164128962Y-101022376D01*
X164128962Y-101022376D02*
X164129415Y-101019931D01*
X164129415Y-101019931D02*
X164129740Y-101017465D01*
X164129740Y-101017465D02*
X164129935Y-101014986D01*
X164129935Y-101014986D02*
X164130000Y-101012500D01*
X164130000Y-101012500D02*
X164130000Y-100545000D01*
X164130000Y-100545000D02*
X164129931Y-100542383D01*
X164129931Y-100542383D02*
X164129726Y-100539774D01*
X164129726Y-100539774D02*
X164129384Y-100537178D01*
X164129384Y-100537178D02*
X164128907Y-100534604D01*
X164128907Y-100534604D02*
X164128296Y-100532059D01*
X164128296Y-100532059D02*
X164127553Y-100529549D01*
X164127553Y-100529549D02*
X164126679Y-100527082D01*
X164126679Y-100527082D02*
X164125677Y-100524663D01*
X164125677Y-100524663D02*
X164124550Y-100522300D01*
X164124550Y-100522300D02*
X164123301Y-100520000D01*
X164123301Y-100520000D02*
X164121934Y-100517768D01*
X164121934Y-100517768D02*
X164120451Y-100515611D01*
X164120451Y-100515611D02*
X164118857Y-100513534D01*
X164118857Y-100513534D02*
X164117157Y-100511543D01*
X164117157Y-100511543D02*
X164115355Y-100509645D01*
X164115355Y-100509645D02*
X164113457Y-100507843D01*
X164113457Y-100507843D02*
X164111466Y-100506143D01*
X164111466Y-100506143D02*
X164109389Y-100504549D01*
X164109389Y-100504549D02*
X164107232Y-100503066D01*
X164107232Y-100503066D02*
X164105000Y-100501699D01*
X164105000Y-100501699D02*
X164102700Y-100500450D01*
X164102700Y-100500450D02*
X164100337Y-100499323D01*
X164100337Y-100499323D02*
X164097918Y-100498321D01*
X164097918Y-100498321D02*
X164095451Y-100497447D01*
X164095451Y-100497447D02*
X164092941Y-100496704D01*
X164092941Y-100496704D02*
X164090396Y-100496093D01*
X164090396Y-100496093D02*
X164087822Y-100495616D01*
X164087822Y-100495616D02*
X164085226Y-100495274D01*
X164085226Y-100495274D02*
X164082617Y-100495069D01*
X164082617Y-100495069D02*
X164080000Y-100495000D01*
X164080000Y-100495000D02*
X163820000Y-100495000D01*
X163820000Y-100495000D02*
X163817383Y-100495069D01*
X163817383Y-100495069D02*
X163814774Y-100495274D01*
X163814774Y-100495274D02*
X163812178Y-100495616D01*
X163812178Y-100495616D02*
X163809604Y-100496093D01*
X163809604Y-100496093D02*
X163807059Y-100496704D01*
X163807059Y-100496704D02*
X163804549Y-100497447D01*
X163804549Y-100497447D02*
X163802082Y-100498321D01*
X163802082Y-100498321D02*
X163799663Y-100499323D01*
X163799663Y-100499323D02*
X163797300Y-100500450D01*
X163797300Y-100500450D02*
X163795000Y-100501699D01*
X163795000Y-100501699D02*
X163792768Y-100503066D01*
X163792768Y-100503066D02*
X163790611Y-100504549D01*
X163790611Y-100504549D02*
X163788534Y-100506143D01*
X163788534Y-100506143D02*
X163786543Y-100507843D01*
X163786543Y-100507843D02*
X163784645Y-100509645D01*
X163784645Y-100509645D02*
X163782843Y-100511543D01*
X163782843Y-100511543D02*
X163781143Y-100513534D01*
X163781143Y-100513534D02*
X163779549Y-100515611D01*
X163779549Y-100515611D02*
X163778066Y-100517768D01*
X163778066Y-100517768D02*
X163776699Y-100520000D01*
X163776699Y-100520000D02*
X163775450Y-100522300D01*
X163775450Y-100522300D02*
X163774323Y-100524663D01*
X163774323Y-100524663D02*
X163773321Y-100527082D01*
X163773321Y-100527082D02*
X163772447Y-100529549D01*
X163772447Y-100529549D02*
X163771704Y-100532059D01*
X163771704Y-100532059D02*
X163771093Y-100534604D01*
X163771093Y-100534604D02*
X163770616Y-100537178D01*
X163770616Y-100537178D02*
X163770274Y-100539774D01*
X163770274Y-100539774D02*
X163770069Y-100542383D01*
X163770069Y-100542383D02*
X163770000Y-100545000D01*
X163770000Y-100545000D02*
X163770000Y-100545000D01*
G36*
X164082617Y-100495069D02*
G01*
X164085226Y-100495274D01*
X164087822Y-100495616D01*
X164090396Y-100496093D01*
X164092941Y-100496704D01*
X164095451Y-100497447D01*
X164097918Y-100498321D01*
X164100337Y-100499323D01*
X164102700Y-100500450D01*
X164105000Y-100501699D01*
X164107232Y-100503066D01*
X164109389Y-100504549D01*
X164111466Y-100506143D01*
X164113457Y-100507843D01*
X164115355Y-100509645D01*
X164117157Y-100511543D01*
X164118857Y-100513534D01*
X164120451Y-100515611D01*
X164121934Y-100517768D01*
X164123301Y-100520000D01*
X164124550Y-100522300D01*
X164125677Y-100524663D01*
X164126679Y-100527082D01*
X164127553Y-100529549D01*
X164128296Y-100532059D01*
X164128907Y-100534604D01*
X164129384Y-100537178D01*
X164129726Y-100539774D01*
X164129931Y-100542383D01*
X164130000Y-100545000D01*
X164130000Y-101012500D01*
X164129935Y-101014986D01*
X164129740Y-101017465D01*
X164129415Y-101019931D01*
X164128962Y-101022376D01*
X164128381Y-101024794D01*
X164127675Y-101027178D01*
X164126845Y-101029522D01*
X164125893Y-101031820D01*
X164124823Y-101034065D01*
X164123636Y-101036250D01*
X164122337Y-101038370D01*
X164120928Y-101040420D01*
X164119414Y-101042393D01*
X164117799Y-101044284D01*
X164116088Y-101046088D01*
X164114284Y-101047799D01*
X164112393Y-101049414D01*
X164110420Y-101050928D01*
X164108370Y-101052337D01*
X164106250Y-101053636D01*
X164104065Y-101054823D01*
X164101820Y-101055893D01*
X164099522Y-101056845D01*
X164097178Y-101057675D01*
X164094794Y-101058381D01*
X164092376Y-101058962D01*
X164089931Y-101059415D01*
X164087465Y-101059740D01*
X164084986Y-101059935D01*
X164082500Y-101060000D01*
X163820000Y-101060000D01*
X163817383Y-101059931D01*
X163814774Y-101059726D01*
X163812178Y-101059384D01*
X163809604Y-101058907D01*
X163807059Y-101058296D01*
X163804549Y-101057553D01*
X163802082Y-101056679D01*
X163799663Y-101055677D01*
X163797300Y-101054550D01*
X163795000Y-101053301D01*
X163792768Y-101051934D01*
X163790611Y-101050451D01*
X163788534Y-101048857D01*
X163786543Y-101047157D01*
X163784645Y-101045355D01*
X163782843Y-101043457D01*
X163781143Y-101041466D01*
X163779549Y-101039389D01*
X163778066Y-101037232D01*
X163776699Y-101035000D01*
X163775450Y-101032700D01*
X163774323Y-101030337D01*
X163773321Y-101027918D01*
X163772447Y-101025451D01*
X163771704Y-101022941D01*
X163771093Y-101020396D01*
X163770616Y-101017822D01*
X163770274Y-101015226D01*
X163770069Y-101012617D01*
X163770000Y-101010000D01*
X163770000Y-100545000D01*
X163770069Y-100542383D01*
X163770274Y-100539774D01*
X163770616Y-100537178D01*
X163771093Y-100534604D01*
X163771704Y-100532059D01*
X163772447Y-100529549D01*
X163773321Y-100527082D01*
X163774323Y-100524663D01*
X163775450Y-100522300D01*
X163776699Y-100520000D01*
X163778066Y-100517768D01*
X163779549Y-100515611D01*
X163781143Y-100513534D01*
X163782843Y-100511543D01*
X163784645Y-100509645D01*
X163786543Y-100507843D01*
X163788534Y-100506143D01*
X163790611Y-100504549D01*
X163792768Y-100503066D01*
X163795000Y-100501699D01*
X163797300Y-100500450D01*
X163799663Y-100499323D01*
X163802082Y-100498321D01*
X163804549Y-100497447D01*
X163807059Y-100496704D01*
X163809604Y-100496093D01*
X163812178Y-100495616D01*
X163814774Y-100495274D01*
X163817383Y-100495069D01*
X163820000Y-100495000D01*
X164080000Y-100495000D01*
X164082617Y-100495069D01*
G37*
X164082617Y-100495069D02*
X164085226Y-100495274D01*
X164087822Y-100495616D01*
X164090396Y-100496093D01*
X164092941Y-100496704D01*
X164095451Y-100497447D01*
X164097918Y-100498321D01*
X164100337Y-100499323D01*
X164102700Y-100500450D01*
X164105000Y-100501699D01*
X164107232Y-100503066D01*
X164109389Y-100504549D01*
X164111466Y-100506143D01*
X164113457Y-100507843D01*
X164115355Y-100509645D01*
X164117157Y-100511543D01*
X164118857Y-100513534D01*
X164120451Y-100515611D01*
X164121934Y-100517768D01*
X164123301Y-100520000D01*
X164124550Y-100522300D01*
X164125677Y-100524663D01*
X164126679Y-100527082D01*
X164127553Y-100529549D01*
X164128296Y-100532059D01*
X164128907Y-100534604D01*
X164129384Y-100537178D01*
X164129726Y-100539774D01*
X164129931Y-100542383D01*
X164130000Y-100545000D01*
X164130000Y-101012500D01*
X164129935Y-101014986D01*
X164129740Y-101017465D01*
X164129415Y-101019931D01*
X164128962Y-101022376D01*
X164128381Y-101024794D01*
X164127675Y-101027178D01*
X164126845Y-101029522D01*
X164125893Y-101031820D01*
X164124823Y-101034065D01*
X164123636Y-101036250D01*
X164122337Y-101038370D01*
X164120928Y-101040420D01*
X164119414Y-101042393D01*
X164117799Y-101044284D01*
X164116088Y-101046088D01*
X164114284Y-101047799D01*
X164112393Y-101049414D01*
X164110420Y-101050928D01*
X164108370Y-101052337D01*
X164106250Y-101053636D01*
X164104065Y-101054823D01*
X164101820Y-101055893D01*
X164099522Y-101056845D01*
X164097178Y-101057675D01*
X164094794Y-101058381D01*
X164092376Y-101058962D01*
X164089931Y-101059415D01*
X164087465Y-101059740D01*
X164084986Y-101059935D01*
X164082500Y-101060000D01*
X163820000Y-101060000D01*
X163817383Y-101059931D01*
X163814774Y-101059726D01*
X163812178Y-101059384D01*
X163809604Y-101058907D01*
X163807059Y-101058296D01*
X163804549Y-101057553D01*
X163802082Y-101056679D01*
X163799663Y-101055677D01*
X163797300Y-101054550D01*
X163795000Y-101053301D01*
X163792768Y-101051934D01*
X163790611Y-101050451D01*
X163788534Y-101048857D01*
X163786543Y-101047157D01*
X163784645Y-101045355D01*
X163782843Y-101043457D01*
X163781143Y-101041466D01*
X163779549Y-101039389D01*
X163778066Y-101037232D01*
X163776699Y-101035000D01*
X163775450Y-101032700D01*
X163774323Y-101030337D01*
X163773321Y-101027918D01*
X163772447Y-101025451D01*
X163771704Y-101022941D01*
X163771093Y-101020396D01*
X163770616Y-101017822D01*
X163770274Y-101015226D01*
X163770069Y-101012617D01*
X163770000Y-101010000D01*
X163770000Y-100545000D01*
X163770069Y-100542383D01*
X163770274Y-100539774D01*
X163770616Y-100537178D01*
X163771093Y-100534604D01*
X163771704Y-100532059D01*
X163772447Y-100529549D01*
X163773321Y-100527082D01*
X163774323Y-100524663D01*
X163775450Y-100522300D01*
X163776699Y-100520000D01*
X163778066Y-100517768D01*
X163779549Y-100515611D01*
X163781143Y-100513534D01*
X163782843Y-100511543D01*
X163784645Y-100509645D01*
X163786543Y-100507843D01*
X163788534Y-100506143D01*
X163790611Y-100504549D01*
X163792768Y-100503066D01*
X163795000Y-100501699D01*
X163797300Y-100500450D01*
X163799663Y-100499323D01*
X163802082Y-100498321D01*
X163804549Y-100497447D01*
X163807059Y-100496704D01*
X163809604Y-100496093D01*
X163812178Y-100495616D01*
X163814774Y-100495274D01*
X163817383Y-100495069D01*
X163820000Y-100495000D01*
X164080000Y-100495000D01*
X164082617Y-100495069D01*
X163770000Y-99710000D02*
X163770000Y-100175000D01*
X163770000Y-100175000D02*
X163770069Y-100177617D01*
X163770069Y-100177617D02*
X163770274Y-100180226D01*
X163770274Y-100180226D02*
X163770616Y-100182822D01*
X163770616Y-100182822D02*
X163771093Y-100185396D01*
X163771093Y-100185396D02*
X163771704Y-100187941D01*
X163771704Y-100187941D02*
X163772447Y-100190451D01*
X163772447Y-100190451D02*
X163773321Y-100192918D01*
X163773321Y-100192918D02*
X163774323Y-100195337D01*
X163774323Y-100195337D02*
X163775450Y-100197700D01*
X163775450Y-100197700D02*
X163776699Y-100200000D01*
X163776699Y-100200000D02*
X163778066Y-100202232D01*
X163778066Y-100202232D02*
X163779549Y-100204389D01*
X163779549Y-100204389D02*
X163781143Y-100206466D01*
X163781143Y-100206466D02*
X163782843Y-100208457D01*
X163782843Y-100208457D02*
X163784645Y-100210355D01*
X163784645Y-100210355D02*
X163786543Y-100212157D01*
X163786543Y-100212157D02*
X163788534Y-100213857D01*
X163788534Y-100213857D02*
X163790611Y-100215451D01*
X163790611Y-100215451D02*
X163792768Y-100216934D01*
X163792768Y-100216934D02*
X163795000Y-100218301D01*
X163795000Y-100218301D02*
X163797300Y-100219550D01*
X163797300Y-100219550D02*
X163799663Y-100220677D01*
X163799663Y-100220677D02*
X163802082Y-100221679D01*
X163802082Y-100221679D02*
X163804549Y-100222553D01*
X163804549Y-100222553D02*
X163807059Y-100223296D01*
X163807059Y-100223296D02*
X163809604Y-100223907D01*
X163809604Y-100223907D02*
X163812178Y-100224384D01*
X163812178Y-100224384D02*
X163814774Y-100224726D01*
X163814774Y-100224726D02*
X163817383Y-100224931D01*
X163817383Y-100224931D02*
X163820000Y-100225000D01*
X163820000Y-100225000D02*
X164082500Y-100225000D01*
X164082500Y-100225000D02*
X164084986Y-100224935D01*
X164084986Y-100224935D02*
X164087465Y-100224740D01*
X164087465Y-100224740D02*
X164089931Y-100224415D01*
X164089931Y-100224415D02*
X164092376Y-100223962D01*
X164092376Y-100223962D02*
X164094794Y-100223381D01*
X164094794Y-100223381D02*
X164097178Y-100222675D01*
X164097178Y-100222675D02*
X164099522Y-100221845D01*
X164099522Y-100221845D02*
X164101820Y-100220893D01*
X164101820Y-100220893D02*
X164104065Y-100219823D01*
X164104065Y-100219823D02*
X164106250Y-100218636D01*
X164106250Y-100218636D02*
X164108370Y-100217337D01*
X164108370Y-100217337D02*
X164110420Y-100215928D01*
X164110420Y-100215928D02*
X164112393Y-100214414D01*
X164112393Y-100214414D02*
X164114284Y-100212799D01*
X164114284Y-100212799D02*
X164116088Y-100211088D01*
X164116088Y-100211088D02*
X164117799Y-100209284D01*
X164117799Y-100209284D02*
X164119414Y-100207393D01*
X164119414Y-100207393D02*
X164120928Y-100205420D01*
X164120928Y-100205420D02*
X164122337Y-100203370D01*
X164122337Y-100203370D02*
X164123636Y-100201250D01*
X164123636Y-100201250D02*
X164124823Y-100199065D01*
X164124823Y-100199065D02*
X164125893Y-100196820D01*
X164125893Y-100196820D02*
X164126845Y-100194522D01*
X164126845Y-100194522D02*
X164127675Y-100192178D01*
X164127675Y-100192178D02*
X164128381Y-100189794D01*
X164128381Y-100189794D02*
X164128962Y-100187376D01*
X164128962Y-100187376D02*
X164129415Y-100184931D01*
X164129415Y-100184931D02*
X164129740Y-100182465D01*
X164129740Y-100182465D02*
X164129935Y-100179986D01*
X164129935Y-100179986D02*
X164130000Y-100177500D01*
X164130000Y-100177500D02*
X164130000Y-99710000D01*
X164130000Y-99710000D02*
X164129931Y-99707383D01*
X164129931Y-99707383D02*
X164129726Y-99704774D01*
X164129726Y-99704774D02*
X164129384Y-99702178D01*
X164129384Y-99702178D02*
X164128907Y-99699604D01*
X164128907Y-99699604D02*
X164128296Y-99697059D01*
X164128296Y-99697059D02*
X164127553Y-99694549D01*
X164127553Y-99694549D02*
X164126679Y-99692082D01*
X164126679Y-99692082D02*
X164125677Y-99689663D01*
X164125677Y-99689663D02*
X164124550Y-99687300D01*
X164124550Y-99687300D02*
X164123301Y-99685000D01*
X164123301Y-99685000D02*
X164121934Y-99682768D01*
X164121934Y-99682768D02*
X164120451Y-99680611D01*
X164120451Y-99680611D02*
X164118857Y-99678534D01*
X164118857Y-99678534D02*
X164117157Y-99676543D01*
X164117157Y-99676543D02*
X164115355Y-99674645D01*
X164115355Y-99674645D02*
X164113457Y-99672843D01*
X164113457Y-99672843D02*
X164111466Y-99671143D01*
X164111466Y-99671143D02*
X164109389Y-99669549D01*
X164109389Y-99669549D02*
X164107232Y-99668066D01*
X164107232Y-99668066D02*
X164105000Y-99666699D01*
X164105000Y-99666699D02*
X164102700Y-99665450D01*
X164102700Y-99665450D02*
X164100337Y-99664323D01*
X164100337Y-99664323D02*
X164097918Y-99663321D01*
X164097918Y-99663321D02*
X164095451Y-99662447D01*
X164095451Y-99662447D02*
X164092941Y-99661704D01*
X164092941Y-99661704D02*
X164090396Y-99661093D01*
X164090396Y-99661093D02*
X164087822Y-99660616D01*
X164087822Y-99660616D02*
X164085226Y-99660274D01*
X164085226Y-99660274D02*
X164082617Y-99660069D01*
X164082617Y-99660069D02*
X164080000Y-99660000D01*
X164080000Y-99660000D02*
X163820000Y-99660000D01*
X163820000Y-99660000D02*
X163817383Y-99660069D01*
X163817383Y-99660069D02*
X163814774Y-99660274D01*
X163814774Y-99660274D02*
X163812178Y-99660616D01*
X163812178Y-99660616D02*
X163809604Y-99661093D01*
X163809604Y-99661093D02*
X163807059Y-99661704D01*
X163807059Y-99661704D02*
X163804549Y-99662447D01*
X163804549Y-99662447D02*
X163802082Y-99663321D01*
X163802082Y-99663321D02*
X163799663Y-99664323D01*
X163799663Y-99664323D02*
X163797300Y-99665450D01*
X163797300Y-99665450D02*
X163795000Y-99666699D01*
X163795000Y-99666699D02*
X163792768Y-99668066D01*
X163792768Y-99668066D02*
X163790611Y-99669549D01*
X163790611Y-99669549D02*
X163788534Y-99671143D01*
X163788534Y-99671143D02*
X163786543Y-99672843D01*
X163786543Y-99672843D02*
X163784645Y-99674645D01*
X163784645Y-99674645D02*
X163782843Y-99676543D01*
X163782843Y-99676543D02*
X163781143Y-99678534D01*
X163781143Y-99678534D02*
X163779549Y-99680611D01*
X163779549Y-99680611D02*
X163778066Y-99682768D01*
X163778066Y-99682768D02*
X163776699Y-99685000D01*
X163776699Y-99685000D02*
X163775450Y-99687300D01*
X163775450Y-99687300D02*
X163774323Y-99689663D01*
X163774323Y-99689663D02*
X163773321Y-99692082D01*
X163773321Y-99692082D02*
X163772447Y-99694549D01*
X163772447Y-99694549D02*
X163771704Y-99697059D01*
X163771704Y-99697059D02*
X163771093Y-99699604D01*
X163771093Y-99699604D02*
X163770616Y-99702178D01*
X163770616Y-99702178D02*
X163770274Y-99704774D01*
X163770274Y-99704774D02*
X163770069Y-99707383D01*
X163770069Y-99707383D02*
X163770000Y-99710000D01*
X163770000Y-99710000D02*
X163770000Y-99710000D01*
G36*
X164082617Y-99660069D02*
G01*
X164085226Y-99660274D01*
X164087822Y-99660616D01*
X164090396Y-99661093D01*
X164092941Y-99661704D01*
X164095451Y-99662447D01*
X164097918Y-99663321D01*
X164100337Y-99664323D01*
X164102700Y-99665450D01*
X164105000Y-99666699D01*
X164107232Y-99668066D01*
X164109389Y-99669549D01*
X164111466Y-99671143D01*
X164113457Y-99672843D01*
X164115355Y-99674645D01*
X164117157Y-99676543D01*
X164118857Y-99678534D01*
X164120451Y-99680611D01*
X164121934Y-99682768D01*
X164123301Y-99685000D01*
X164124550Y-99687300D01*
X164125677Y-99689663D01*
X164126679Y-99692082D01*
X164127553Y-99694549D01*
X164128296Y-99697059D01*
X164128907Y-99699604D01*
X164129384Y-99702178D01*
X164129726Y-99704774D01*
X164129931Y-99707383D01*
X164130000Y-99710000D01*
X164130000Y-100177500D01*
X164129935Y-100179986D01*
X164129740Y-100182465D01*
X164129415Y-100184931D01*
X164128962Y-100187376D01*
X164128381Y-100189794D01*
X164127675Y-100192178D01*
X164126845Y-100194522D01*
X164125893Y-100196820D01*
X164124823Y-100199065D01*
X164123636Y-100201250D01*
X164122337Y-100203370D01*
X164120928Y-100205420D01*
X164119414Y-100207393D01*
X164117799Y-100209284D01*
X164116088Y-100211088D01*
X164114284Y-100212799D01*
X164112393Y-100214414D01*
X164110420Y-100215928D01*
X164108370Y-100217337D01*
X164106250Y-100218636D01*
X164104065Y-100219823D01*
X164101820Y-100220893D01*
X164099522Y-100221845D01*
X164097178Y-100222675D01*
X164094794Y-100223381D01*
X164092376Y-100223962D01*
X164089931Y-100224415D01*
X164087465Y-100224740D01*
X164084986Y-100224935D01*
X164082500Y-100225000D01*
X163820000Y-100225000D01*
X163817383Y-100224931D01*
X163814774Y-100224726D01*
X163812178Y-100224384D01*
X163809604Y-100223907D01*
X163807059Y-100223296D01*
X163804549Y-100222553D01*
X163802082Y-100221679D01*
X163799663Y-100220677D01*
X163797300Y-100219550D01*
X163795000Y-100218301D01*
X163792768Y-100216934D01*
X163790611Y-100215451D01*
X163788534Y-100213857D01*
X163786543Y-100212157D01*
X163784645Y-100210355D01*
X163782843Y-100208457D01*
X163781143Y-100206466D01*
X163779549Y-100204389D01*
X163778066Y-100202232D01*
X163776699Y-100200000D01*
X163775450Y-100197700D01*
X163774323Y-100195337D01*
X163773321Y-100192918D01*
X163772447Y-100190451D01*
X163771704Y-100187941D01*
X163771093Y-100185396D01*
X163770616Y-100182822D01*
X163770274Y-100180226D01*
X163770069Y-100177617D01*
X163770000Y-100175000D01*
X163770000Y-99710000D01*
X163770069Y-99707383D01*
X163770274Y-99704774D01*
X163770616Y-99702178D01*
X163771093Y-99699604D01*
X163771704Y-99697059D01*
X163772447Y-99694549D01*
X163773321Y-99692082D01*
X163774323Y-99689663D01*
X163775450Y-99687300D01*
X163776699Y-99685000D01*
X163778066Y-99682768D01*
X163779549Y-99680611D01*
X163781143Y-99678534D01*
X163782843Y-99676543D01*
X163784645Y-99674645D01*
X163786543Y-99672843D01*
X163788534Y-99671143D01*
X163790611Y-99669549D01*
X163792768Y-99668066D01*
X163795000Y-99666699D01*
X163797300Y-99665450D01*
X163799663Y-99664323D01*
X163802082Y-99663321D01*
X163804549Y-99662447D01*
X163807059Y-99661704D01*
X163809604Y-99661093D01*
X163812178Y-99660616D01*
X163814774Y-99660274D01*
X163817383Y-99660069D01*
X163820000Y-99660000D01*
X164080000Y-99660000D01*
X164082617Y-99660069D01*
G37*
X164082617Y-99660069D02*
X164085226Y-99660274D01*
X164087822Y-99660616D01*
X164090396Y-99661093D01*
X164092941Y-99661704D01*
X164095451Y-99662447D01*
X164097918Y-99663321D01*
X164100337Y-99664323D01*
X164102700Y-99665450D01*
X164105000Y-99666699D01*
X164107232Y-99668066D01*
X164109389Y-99669549D01*
X164111466Y-99671143D01*
X164113457Y-99672843D01*
X164115355Y-99674645D01*
X164117157Y-99676543D01*
X164118857Y-99678534D01*
X164120451Y-99680611D01*
X164121934Y-99682768D01*
X164123301Y-99685000D01*
X164124550Y-99687300D01*
X164125677Y-99689663D01*
X164126679Y-99692082D01*
X164127553Y-99694549D01*
X164128296Y-99697059D01*
X164128907Y-99699604D01*
X164129384Y-99702178D01*
X164129726Y-99704774D01*
X164129931Y-99707383D01*
X164130000Y-99710000D01*
X164130000Y-100177500D01*
X164129935Y-100179986D01*
X164129740Y-100182465D01*
X164129415Y-100184931D01*
X164128962Y-100187376D01*
X164128381Y-100189794D01*
X164127675Y-100192178D01*
X164126845Y-100194522D01*
X164125893Y-100196820D01*
X164124823Y-100199065D01*
X164123636Y-100201250D01*
X164122337Y-100203370D01*
X164120928Y-100205420D01*
X164119414Y-100207393D01*
X164117799Y-100209284D01*
X164116088Y-100211088D01*
X164114284Y-100212799D01*
X164112393Y-100214414D01*
X164110420Y-100215928D01*
X164108370Y-100217337D01*
X164106250Y-100218636D01*
X164104065Y-100219823D01*
X164101820Y-100220893D01*
X164099522Y-100221845D01*
X164097178Y-100222675D01*
X164094794Y-100223381D01*
X164092376Y-100223962D01*
X164089931Y-100224415D01*
X164087465Y-100224740D01*
X164084986Y-100224935D01*
X164082500Y-100225000D01*
X163820000Y-100225000D01*
X163817383Y-100224931D01*
X163814774Y-100224726D01*
X163812178Y-100224384D01*
X163809604Y-100223907D01*
X163807059Y-100223296D01*
X163804549Y-100222553D01*
X163802082Y-100221679D01*
X163799663Y-100220677D01*
X163797300Y-100219550D01*
X163795000Y-100218301D01*
X163792768Y-100216934D01*
X163790611Y-100215451D01*
X163788534Y-100213857D01*
X163786543Y-100212157D01*
X163784645Y-100210355D01*
X163782843Y-100208457D01*
X163781143Y-100206466D01*
X163779549Y-100204389D01*
X163778066Y-100202232D01*
X163776699Y-100200000D01*
X163775450Y-100197700D01*
X163774323Y-100195337D01*
X163773321Y-100192918D01*
X163772447Y-100190451D01*
X163771704Y-100187941D01*
X163771093Y-100185396D01*
X163770616Y-100182822D01*
X163770274Y-100180226D01*
X163770069Y-100177617D01*
X163770000Y-100175000D01*
X163770000Y-99710000D01*
X163770069Y-99707383D01*
X163770274Y-99704774D01*
X163770616Y-99702178D01*
X163771093Y-99699604D01*
X163771704Y-99697059D01*
X163772447Y-99694549D01*
X163773321Y-99692082D01*
X163774323Y-99689663D01*
X163775450Y-99687300D01*
X163776699Y-99685000D01*
X163778066Y-99682768D01*
X163779549Y-99680611D01*
X163781143Y-99678534D01*
X163782843Y-99676543D01*
X163784645Y-99674645D01*
X163786543Y-99672843D01*
X163788534Y-99671143D01*
X163790611Y-99669549D01*
X163792768Y-99668066D01*
X163795000Y-99666699D01*
X163797300Y-99665450D01*
X163799663Y-99664323D01*
X163802082Y-99663321D01*
X163804549Y-99662447D01*
X163807059Y-99661704D01*
X163809604Y-99661093D01*
X163812178Y-99660616D01*
X163814774Y-99660274D01*
X163817383Y-99660069D01*
X163820000Y-99660000D01*
X164080000Y-99660000D01*
X164082617Y-99660069D01*
%TD*%
D11*
%TO.C,C9*%
X170220000Y-87150000D03*
X170220000Y-89050000D03*
%TD*%
D12*
%TO.C,C22*%
X184010000Y-87270000D03*
X184010000Y-88230000D03*
%TD*%
D13*
%TO.C,R7*%
X180520000Y-91500000D03*
X179500000Y-91500000D03*
%TD*%
D14*
%TO.C,U2*%
X121424556Y-84634089D03*
X121424556Y-83934089D03*
X120574556Y-84284089D03*
%TD*%
D15*
%TO.C,Q1*%
X148387500Y-102375000D03*
X147737500Y-102375000D03*
X147087500Y-102375000D03*
D16*
X147977500Y-103855000D03*
X146847500Y-103145000D03*
X147977500Y-103145000D03*
D15*
X146437500Y-102375000D03*
D16*
X146847500Y-103855000D03*
D15*
X146437500Y-105375000D03*
X147087500Y-105375000D03*
X147737500Y-105375000D03*
X148387500Y-105375000D03*
%TD*%
D13*
%TO.C,R4*%
X121519556Y-81894089D03*
X120499556Y-81894089D03*
%TD*%
D17*
%TO.C,C15*%
X175540000Y-89740000D03*
X176500000Y-89740000D03*
%TD*%
D18*
%TO.C,C12*%
X149912500Y-108855000D03*
X149912500Y-107895000D03*
%TD*%
D19*
%TO.C,L1*%
X177735000Y-77640000D03*
X181885000Y-77640000D03*
%TD*%
D20*
%TO.C,R9*%
X182700000Y-87240000D03*
X182700000Y-88260000D03*
%TD*%
D21*
%TO.C,U3*%
X177440000Y-85430000D03*
X178800000Y-85430000D03*
X177440000Y-87130000D03*
X178800000Y-87130000D03*
D22*
X175557500Y-84375000D03*
X175557500Y-85645000D03*
X175557500Y-86915000D03*
X175557500Y-88185000D03*
X180682500Y-88185000D03*
X180682500Y-86915000D03*
X180682500Y-85645000D03*
X180682500Y-84375000D03*
%TD*%
D23*
%TO.C,R3*%
X120499556Y-82874089D03*
X121519556Y-82874089D03*
%TD*%
%TO.C,R1*%
X163440000Y-69570000D03*
X164460000Y-69570000D03*
%TD*%
D24*
%TO.C,C30*%
X181950000Y-71120000D03*
X175725000Y-71120000D03*
%TD*%
D12*
%TO.C,C20*%
X182530000Y-84020000D03*
X182530000Y-84980000D03*
%TD*%
D11*
%TO.C,C16*%
X167880000Y-95995000D03*
X167880000Y-97895000D03*
%TD*%
D25*
%TO.C,C26*%
X181927500Y-112972500D03*
X183827500Y-112972500D03*
%TD*%
D26*
%TO.C,R16*%
X154670000Y-116530000D03*
X154670000Y-115510000D03*
%TD*%
D11*
%TO.C,C11*%
X167870000Y-87150000D03*
X167870000Y-89050000D03*
%TD*%
D27*
%TO.C,C1*%
X167840000Y-85440000D03*
X167840000Y-83540000D03*
%TD*%
D17*
%TO.C,C34*%
X169030000Y-100310000D03*
X169990000Y-100310000D03*
%TD*%
D28*
%TO.C,C24*%
X177630000Y-63320000D03*
X175730000Y-63320000D03*
%TD*%
D26*
%TO.C,R5*%
X149912500Y-106885000D03*
X149912500Y-105865000D03*
%TD*%
D13*
%TO.C,R6*%
X178660000Y-82350000D03*
X177640000Y-82350000D03*
%TD*%
D29*
%TO.C,D1*%
X163350000Y-68170000D03*
X164925000Y-68170000D03*
%TD*%
D23*
%TO.C,R11*%
X183060000Y-94625000D03*
X184080000Y-94625000D03*
%TD*%
D11*
%TO.C,C7*%
X172570000Y-87150000D03*
X172570000Y-89050000D03*
%TD*%
D20*
%TO.C,R14*%
X122350000Y-115260000D03*
X122350000Y-116280000D03*
%TD*%
D27*
%TO.C,C5*%
X172540000Y-85440000D03*
X172540000Y-83540000D03*
%TD*%
D17*
%TO.C,C19*%
X175360000Y-98570000D03*
X176320000Y-98570000D03*
%TD*%
D25*
%TO.C,C33*%
X118020000Y-112750000D03*
X119920000Y-112750000D03*
%TD*%
D13*
%TO.C,R2*%
X164060000Y-64570000D03*
X163040000Y-64570000D03*
%TD*%
D28*
%TO.C,C23*%
X177630000Y-66520000D03*
X175730000Y-66520000D03*
%TD*%
D23*
%TO.C,R13*%
X183060000Y-96005000D03*
X184080000Y-96005000D03*
%TD*%
D13*
%TO.C,R12*%
X184080000Y-97385000D03*
X183060000Y-97385000D03*
%TD*%
D30*
%TO.C,L2*%
X180397500Y-103332500D03*
X180397500Y-107482500D03*
%TD*%
D13*
%TO.C,R10*%
X180680000Y-89740000D03*
X179660000Y-89740000D03*
%TD*%
D31*
%TO.C,J2*%
X116579556Y-83274089D03*
X116579556Y-83924089D03*
X116579556Y-84574089D03*
X116579556Y-85224089D03*
X116579556Y-85874089D03*
D32*
X113509556Y-85536589D03*
D33*
X115459556Y-87561589D03*
D34*
X116819556Y-87474089D03*
D33*
X115459556Y-81586589D03*
D34*
X116819556Y-81724089D03*
D35*
X114689556Y-87299089D03*
X114689556Y-81849089D03*
D32*
X113509556Y-83611589D03*
%TD*%
D36*
%TO.C,C21*%
X184050000Y-93255000D03*
X183090000Y-93255000D03*
%TD*%
%TO.C,C18*%
X176340000Y-91500000D03*
X175380000Y-91500000D03*
%TD*%
D37*
%TO.C,U5*%
X118150000Y-115020000D03*
X118150000Y-115970000D03*
X118150000Y-116920000D03*
X120425000Y-116920000D03*
X120425000Y-115020000D03*
%TD*%
D38*
%TO.C,U6*%
X164950000Y-99942500D03*
X164450000Y-99942500D03*
X163450000Y-99942500D03*
X162950000Y-99942500D03*
X162950000Y-100777500D03*
X163450000Y-100777500D03*
X164450000Y-100777500D03*
X164950000Y-100777500D03*
%TD*%
D21*
%TO.C,U4*%
X177250000Y-94335000D03*
X178610000Y-96035000D03*
X177250000Y-96035000D03*
X178610000Y-94335000D03*
D22*
X175367500Y-93280000D03*
X175367500Y-94550000D03*
X175367500Y-95820000D03*
X175367500Y-97090000D03*
X180492500Y-97090000D03*
X180492500Y-95820000D03*
X180492500Y-94550000D03*
X180492500Y-93280000D03*
%TD*%
D12*
%TO.C,C3*%
X149912500Y-103895000D03*
X149912500Y-104855000D03*
%TD*%
D26*
%TO.C,R15*%
X153300000Y-116530000D03*
X153300000Y-115510000D03*
%TD*%
D27*
%TO.C,C8*%
X172370000Y-94375000D03*
X172370000Y-92475000D03*
%TD*%
%TO.C,C2*%
X170190000Y-85440000D03*
X170190000Y-83540000D03*
%TD*%
D25*
%TO.C,C17*%
X149920000Y-110875000D03*
X151820000Y-110875000D03*
%TD*%
D39*
%TO.C,J5*%
X132730000Y-115262500D03*
X131630000Y-115262500D03*
X130530000Y-115262500D03*
X129430000Y-115262500D03*
X128330000Y-115262500D03*
X127230000Y-115262500D03*
X126130000Y-115262500D03*
X125030000Y-115262500D03*
D40*
X134520000Y-102797500D03*
D41*
X130255000Y-102722500D03*
D42*
X136830000Y-103997500D03*
D43*
X136610000Y-115247500D03*
D44*
X123950000Y-114762500D03*
D42*
X123870000Y-103997500D03*
%TD*%
D27*
%TO.C,C6*%
X170150000Y-94375000D03*
X170150000Y-92475000D03*
%TD*%
D45*
%TO.C,C32*%
X177970000Y-122210000D03*
X184195000Y-122210000D03*
%TD*%
D25*
%TO.C,C28*%
X181917500Y-115762500D03*
X183817500Y-115762500D03*
%TD*%
D46*
%TO.C,D3*%
X146462500Y-106875000D03*
X147412500Y-108875000D03*
X148362500Y-106875000D03*
%TD*%
D47*
%TO.C,U1*%
X164450000Y-61370000D03*
X163800000Y-61370000D03*
X163150000Y-61370000D03*
X163150000Y-63270000D03*
X164450000Y-63270000D03*
%TD*%
D28*
%TO.C,C29*%
X179947500Y-115762500D03*
X178047500Y-115762500D03*
%TD*%
D25*
%TO.C,C25*%
X179900000Y-63320000D03*
X181800000Y-63320000D03*
%TD*%
D29*
%TO.C,D2*%
X163262500Y-66170000D03*
X164837500Y-66170000D03*
%TD*%
D28*
%TO.C,C31*%
X179947500Y-112972500D03*
X178047500Y-112972500D03*
%TD*%
D36*
%TO.C,C14*%
X176530000Y-82360000D03*
X175570000Y-82360000D03*
%TD*%
D25*
%TO.C,C27*%
X179900000Y-66510000D03*
X181800000Y-66510000D03*
%TD*%
D48*
%TO.C,Module1*%
X160650000Y-81070000D03*
X157570000Y-81070000D03*
X160650000Y-80670000D03*
X157570000Y-80670000D03*
X160650000Y-80270000D03*
X157570000Y-80270000D03*
X160650000Y-79870000D03*
X157570000Y-79870000D03*
X160650000Y-79470000D03*
X157570000Y-79470000D03*
X160650000Y-79070000D03*
X157570000Y-79070000D03*
X160650000Y-78670000D03*
X157570000Y-78670000D03*
X160650000Y-78270000D03*
X157570000Y-78270000D03*
X160650000Y-77870000D03*
X157570000Y-77870000D03*
X160650000Y-77470000D03*
X157570000Y-77470000D03*
X160650000Y-77070000D03*
X157570000Y-77070000D03*
X160650000Y-76670000D03*
X157570000Y-76670000D03*
X160650000Y-76270000D03*
X157570000Y-76270000D03*
X160650000Y-75870000D03*
X157570000Y-75870000D03*
X160650000Y-75470000D03*
X157570000Y-75470000D03*
X160650000Y-75070000D03*
X157570000Y-75070000D03*
X160650000Y-74670000D03*
X157570000Y-74670000D03*
X160650000Y-74270000D03*
X157570000Y-74270000D03*
X160650000Y-73870000D03*
X157570000Y-73870000D03*
X160650000Y-73470000D03*
X157570000Y-73470000D03*
X160650000Y-73070000D03*
X157570000Y-73070000D03*
X160650000Y-72670000D03*
X157570000Y-72670000D03*
X160650000Y-72270000D03*
X157570000Y-72270000D03*
X160650000Y-71870000D03*
X157570000Y-71870000D03*
X160650000Y-71470000D03*
X157570000Y-71470000D03*
X160650000Y-71070000D03*
X157570000Y-71070000D03*
X160650000Y-70670000D03*
X157570000Y-70670000D03*
X160650000Y-70270000D03*
X157570000Y-70270000D03*
X160650000Y-69870000D03*
X157570000Y-69870000D03*
X160650000Y-69470000D03*
X157570000Y-69470000D03*
X160650000Y-69070000D03*
X157570000Y-69070000D03*
X160650000Y-68670000D03*
X157570000Y-68670000D03*
X160650000Y-68270000D03*
X157570000Y-68270000D03*
X160650000Y-67870000D03*
X157570000Y-67870000D03*
X160650000Y-67470000D03*
X157570000Y-67470000D03*
X160650000Y-67070000D03*
X157570000Y-67070000D03*
X160650000Y-66670000D03*
X157570000Y-66670000D03*
X160650000Y-66270000D03*
X157570000Y-66270000D03*
X160650000Y-65870000D03*
X157570000Y-65870000D03*
X160650000Y-65470000D03*
X157570000Y-65470000D03*
X160650000Y-65070000D03*
X157570000Y-65070000D03*
X160650000Y-64670000D03*
X157570000Y-64670000D03*
X160650000Y-64270000D03*
X157570000Y-64270000D03*
X160650000Y-63870000D03*
X157570000Y-63870000D03*
X160650000Y-63470000D03*
X157570000Y-63470000D03*
X160650000Y-63070000D03*
X157570000Y-63070000D03*
X160650000Y-62670000D03*
X157570000Y-62670000D03*
X160650000Y-62270000D03*
X157570000Y-62270000D03*
X160650000Y-61870000D03*
X157570000Y-61870000D03*
X160650000Y-61470000D03*
X157570000Y-61470000D03*
X126730000Y-81070000D03*
X123650000Y-81070000D03*
X126730000Y-80670000D03*
X123650000Y-80670000D03*
X126730000Y-80270000D03*
X123650000Y-80270000D03*
X126730000Y-79870000D03*
X123650000Y-79870000D03*
X126730000Y-79470000D03*
X123650000Y-79470000D03*
X126730000Y-79070000D03*
X123650000Y-79070000D03*
X126730000Y-78670000D03*
X123650000Y-78670000D03*
X126730000Y-78270000D03*
X123650000Y-78270000D03*
X126730000Y-77870000D03*
X123650000Y-77870000D03*
X126730000Y-77470000D03*
X123650000Y-77470000D03*
X126730000Y-77070000D03*
X123650000Y-77070000D03*
X126730000Y-76670000D03*
X123650000Y-76670000D03*
X126730000Y-76270000D03*
X123650000Y-76270000D03*
X126730000Y-75870000D03*
X123650000Y-75870000D03*
X126730000Y-75470000D03*
X123650000Y-75470000D03*
X126730000Y-75070000D03*
X123650000Y-75070000D03*
X126730000Y-74670000D03*
X123650000Y-74670000D03*
X126730000Y-74270000D03*
X123650000Y-74270000D03*
X126730000Y-73870000D03*
X123650000Y-73870000D03*
X126730000Y-73470000D03*
X123650000Y-73470000D03*
X126730000Y-73070000D03*
X123650000Y-73070000D03*
X126730000Y-72670000D03*
X123650000Y-72670000D03*
X126730000Y-72270000D03*
X123650000Y-72270000D03*
X126730000Y-71870000D03*
X123650000Y-71870000D03*
X126730000Y-71470000D03*
X123650000Y-71470000D03*
X126730000Y-71070000D03*
X123650000Y-71070000D03*
X126730000Y-70670000D03*
X123650000Y-70670000D03*
X126730000Y-70270000D03*
X123650000Y-70270000D03*
X126730000Y-69870000D03*
X123650000Y-69870000D03*
X126730000Y-69470000D03*
X123650000Y-69470000D03*
X126730000Y-69070000D03*
X123650000Y-69070000D03*
X126730000Y-68670000D03*
X123650000Y-68670000D03*
X126730000Y-68270000D03*
X123650000Y-68270000D03*
X126730000Y-67870000D03*
X123650000Y-67870000D03*
X126730000Y-67470000D03*
X123650000Y-67470000D03*
X126730000Y-67070000D03*
X123650000Y-67070000D03*
X126730000Y-66670000D03*
X123650000Y-66670000D03*
X126730000Y-66270000D03*
X123650000Y-66270000D03*
X126730000Y-65870000D03*
X123650000Y-65870000D03*
X126730000Y-65470000D03*
X123650000Y-65470000D03*
X126730000Y-65070000D03*
X123650000Y-65070000D03*
X126730000Y-64670000D03*
X123650000Y-64670000D03*
X126730000Y-64270000D03*
X123650000Y-64270000D03*
X126730000Y-63870000D03*
X123650000Y-63870000D03*
X126730000Y-63470000D03*
X123650000Y-63470000D03*
X126730000Y-63070000D03*
X123650000Y-63070000D03*
X126730000Y-62670000D03*
X123650000Y-62670000D03*
X126730000Y-62270000D03*
X123650000Y-62270000D03*
X126730000Y-61870000D03*
X123650000Y-61870000D03*
X126730000Y-61470000D03*
X123650000Y-61470000D03*
%TD*%
D27*
%TO.C,C4*%
X167930000Y-94375000D03*
X167930000Y-92475000D03*
%TD*%
D26*
%TO.C,R8*%
X183850000Y-85000000D03*
X183850000Y-83980000D03*
%TD*%
D11*
%TO.C,C13*%
X170075000Y-95995000D03*
X170075000Y-97895000D03*
%TD*%
%TO.C,C10*%
X172270000Y-95995000D03*
X172270000Y-97895000D03*
%TD*%
M02*
